<svg width="16" height="16" viewBox="0 0 16 16" fill="none" xmlns="http://www.w3.org/2000/svg">
<path d="M15.9001 14.5001L12.6001 11.2001C13.519 9.99379 14.0114 8.51654 14.0001 7.00013C14.0058 6.07929 13.8287 5.16647 13.4789 4.31461C13.1292 3.46275 12.6138 2.68881 11.9626 2.03766C11.3115 1.38651 10.5375 0.871109 9.68566 0.521348C8.8338 0.171587 7.92098 -0.00557568 7.00013 0.000133728C6.07929 -0.00557568 5.16647 0.171587 4.31461 0.521348C3.46275 0.871109 2.68881 1.38651 2.03766 2.03766C1.38651 2.68881 0.871109 3.46275 0.521348 4.31461C0.171587 5.16647 -0.00557568 6.07929 0.000133728 7.00013C-0.00557568 7.92098 0.171587 8.8338 0.521348 9.68566C0.871109 10.5375 1.38651 11.3115 2.03766 11.9626C2.68881 12.6138 3.46275 13.1292 4.31461 13.4789C5.16647 13.8287 6.07929 14.0058 7.00013 14.0001C8.51654 14.0114 9.99379 13.519 11.2001 12.6001L14.5001 15.9001L15.9001 14.5001ZM2.00013 7.00013C1.99358 6.3417 2.11844 5.68858 2.3674 5.07899C2.61635 4.46941 2.9844 3.91561 3.45 3.45C3.91561 2.9844 4.46941 2.61635 5.07899 2.3674C5.68858 2.11844 6.3417 1.99358 7.00013 2.00013C7.65856 1.99358 8.31169 2.11844 8.92127 2.3674C9.53086 2.61635 10.0847 2.9844 10.5503 3.45C11.0159 3.91561 11.3839 4.46941 11.6329 5.07899C11.8818 5.68858 12.0067 6.3417 12.0001 7.00013C12.0067 7.65856 11.8818 8.31169 11.6329 8.92127C11.3839 9.53086 11.0159 10.0847 10.5503 10.5503C10.0847 11.0159 9.53086 11.3839 8.92127 11.6329C8.31169 11.8818 7.65856 12.0067 7.00013 12.0001C6.3417 12.0067 5.68858 11.8818 5.07899 11.6329C4.46941 11.3839 3.91561 11.0159 3.45 10.5503C2.9844 10.0847 2.61635 9.53086 2.3674 8.92127C2.11844 8.31169 1.99358 7.65856 2.00013 7.00013Z" fill="#898787"/>
</svg>
